<!-- Generator: Adobe Illustrator 16.0.0, SVG Export Plug-In . SVG Version: 6.00 Build 0)  -->
<svg xmlns:rdf="http://www.w3.org/1999/02/22-rdf-syntax-ns#" xmlns="http://www.w3.org/2000/svg" enable-background="new 0 0 500 500" xml:space="preserve" height="500px" viewBox="0 0 500 500" width="500px" version="1.1" y="0px" x="0px" xmlns:cc="http://creativecommons.org/ns#" xmlns:xlink="http://www.w3.org/1999/xlink" xmlns:dc="http://purl.org/dc/elements/1.1/"><metadata><rdf:RDF><cc:Work rdf:about=""><dc:format>image/svg+xml</dc:format><dc:type rdf:resource="http://purl.org/dc/dcmitype/StillImage"/><dc:title/></cc:Work></rdf:RDF></metadata><g enable-background="new    "><g enable-background="new    "><defs><path id="SVGID_1_" enable-background="new    " d="M247.07,102.01h1.395c-0.036,0-0.074,0-0.114,0.002h-1.395,0.11z"/></defs><clipPath id="SVGID_2_"><use overflow="visible" xlink:href="#SVGID_1_"/></clipPath><g enable-background="new    " clip-path="url(#SVGID_2_)"><path d="M248.35,102.01h-1.395c0.04-0.002,0.078-0.002,0.114-0.002h1.395-0.11" fill="#85001B"/></g></g><g enable-background="new    "><defs><path id="SVGID_3_" enable-background="new    " d="M247.29,97.299h-1.395c0.979,0,1.688-0.216,2.127-0.639,0.431-0.423,1.015-0.99,1.733-1.692h1.395c-0.718,0.702-1.302,1.269-1.732,1.692-0.45,0.423-1.16,0.639-2.14,0.639z"/></defs><clipPath id="SVGID_4_"><use overflow="visible" xlink:href="#SVGID_3_"/></clipPath><g enable-background="new    " clip-path="url(#SVGID_4_)"><path d="M247.29,97.299h-1.395c0.979,0,1.688-0.216,2.127-0.639,0.431-0.423,1.015-0.99,1.733-1.692h1.395c-0.718,0.702-1.302,1.269-1.732,1.692-0.45,0.423-1.16,0.639-2.14,0.639" fill="#85001B"/></g></g><rect height="0.36" width="1.395" y="104.36" x="241.64" fill="#80001A"/><g enable-background="new    "><defs><path id="SVGID_5_" enable-background="new    " d="M239.71,141.08h-1.395c0.979-0.801,1.715-1.602,2.2-2.403,0.494-0.801,0.736-1.764,0.736-2.898,0-1.458-0.404-2.799-1.194-4.023-0.808-1.224-1.697-2.475-2.675-3.744-0.979-1.269-1.868-2.637-2.667-4.095s-1.194-3.15-1.194-5.085c0-2.826,0.781-5.427,2.353-7.803,1.58-2.376,3.493-4.482,5.764-6.318h1.395c-2.271,1.836-4.184,3.942-5.764,6.318-1.571,2.376-2.353,4.977-2.353,7.803,0,1.935,0.396,3.627,1.194,5.085s1.688,2.826,2.667,4.095,1.867,2.52,2.675,3.744c0.79,1.224,1.194,2.565,1.194,4.023,0,1.134-0.242,2.097-0.736,2.898-0.49,0.8-1.22,1.6-2.2,2.4z"/></defs><clipPath id="SVGID_6_"><use overflow="visible" xlink:href="#SVGID_5_"/></clipPath><g enable-background="new    " clip-path="url(#SVGID_6_)"><path d="M239.71,141.08h-1.395c0.979-0.801,1.715-1.602,2.2-2.403,0.494-0.801,0.736-1.764,0.736-2.898,0-1.458-0.404-2.799-1.194-4.023-0.808-1.224-1.697-2.475-2.675-3.744-0.979-1.269-1.868-2.637-2.667-4.095s-1.194-3.15-1.194-5.085c0-2.826,0.781-5.427,2.353-7.803,1.58-2.376,3.493-4.482,5.764-6.318h1.395c-2.271,1.836-4.184,3.942-5.764,6.318-1.571,2.376-2.353,4.977-2.353,7.803,0,1.935,0.396,3.627,1.194,5.085s1.688,2.826,2.667,4.095,1.867,2.52,2.675,3.744c0.79,1.224,1.194,2.565,1.194,4.023,0,1.134-0.242,2.097-0.736,2.898-0.49,0.8-1.22,1.6-2.2,2.4" fill="#85001B"/></g></g><g enable-background="new    "><defs><path id="SVGID_7_" enable-background="new    " d="M238.78,104.72h-1.395c-1.23,0-2.424-0.297-3.556-0.882-1.131-0.594-2.218-0.882-3.25-0.882h1.396c1.032,0,2.119,0.288,3.25,0.882,1.13,0.58,2.33,0.88,3.56,0.88z"/></defs><clipPath id="SVGID_8_"><use overflow="visible" xlink:href="#SVGID_7_"/></clipPath><g enable-background="new    " clip-path="url(#SVGID_8_)"><path d="M238.78,104.72h-1.395c-1.23,0-2.424-0.297-3.556-0.882-1.131-0.594-2.218-0.882-3.25-0.882h1.396c1.032,0,2.119,0.288,3.25,0.882,1.13,0.58,2.33,0.88,3.56,0.88" fill="#85001B"/></g></g><rect height="27.189" width="1.395" y="108.74" x="228.64" fill="#80001A"/><rect height="1.764" width="1.395" y="106.97" x="228.64" fill="#80001A"/><g enable-background="new    "><defs><path id="SVGID_9_" enable-background="new    " d="M229.85,136.17h-1.395c0.125-0.072,0.188-0.153,0.188-0.243h1.395c0,0.09-0.06,0.17-0.19,0.24z"/></defs><clipPath id="SVGID_10_"><use overflow="visible" xlink:href="#SVGID_9_"/></clipPath><g enable-background="new    " clip-path="url(#SVGID_10_)"><path d="M229.85,136.17h-1.395c0.125-0.072,0.188-0.153,0.188-0.243h1.395c0,0.09-0.06,0.17-0.19,0.24" fill="#85001B"/></g></g><g enable-background="new    "><defs><path id="SVGID_11_" enable-background="new    " d="M229.5,136.28h-1.395c0.099,0,0.215-0.036,0.35-0.108h1.395c-0.12,0.07-0.24,0.11-0.34,0.11z"/></defs><clipPath id="SVGID_12_"><use overflow="visible" xlink:href="#SVGID_11_"/></clipPath><g enable-background="new    " clip-path="url(#SVGID_12_)"><path d="M229.5,136.28h-1.395c0.099,0,0.215-0.036,0.35-0.108h1.395c-0.12,0.07-0.24,0.11-0.34,0.11" fill="#85001B"/></g></g><g enable-background="new    "><defs><path id="SVGID_13_" enable-background="new    " d="M230.04,106.97h-1.395c0-1.089-0.089-2.178-0.269-3.285s-0.53-1.665-1.042-1.665h1.395c0.512,0,0.862,0.558,1.042,1.665s0.28,2.2,0.28,3.29z"/></defs><clipPath id="SVGID_14_"><use overflow="visible" xlink:href="#SVGID_13_"/></clipPath><g enable-background="new    " clip-path="url(#SVGID_14_)"><path d="M230.04,106.97h-1.395c0-1.089-0.089-2.178-0.269-3.285s-0.53-1.665-1.042-1.665h1.395c0.512,0,0.862,0.558,1.042,1.665s0.28,2.2,0.28,3.29" fill="#85001B"/></g></g><g enable-background="new    "><defs><path id="SVGID_15_" enable-background="new    " d="M228.73,151.32h-1.395c-0.565-0.045-1.069-0.468-1.509-1.269s-0.916-1.386-1.436-1.764h1.395c0.521,0.378,0.997,0.963,1.436,1.764,0.44,0.8,0.94,1.22,1.51,1.27z"/></defs><clipPath id="SVGID_16_"><use overflow="visible" xlink:href="#SVGID_15_"/></clipPath><g enable-background="new    " clip-path="url(#SVGID_16_)"><path d="M228.73,151.32h-1.395c-0.565-0.045-1.069-0.468-1.509-1.269s-0.916-1.386-1.436-1.764h1.395c0.521,0.378,0.997,0.963,1.436,1.764,0.44,0.8,0.94,1.22,1.51,1.27" fill="#85001B"/></g></g><g enable-background="new    "><defs><path id="SVGID_17_" enable-background="new    " d="M224.63,102.38h-1.395c1.293-2.358,2.864-4.428,4.723-6.219,1.804-1.747,4.23-2.612,7.264-2.612h1.395c-3.033,0-5.46,0.865-7.264,2.612-1.87,1.795-3.44,3.869-4.73,6.219z"/></defs><clipPath id="SVGID_18_"><use overflow="visible" xlink:href="#SVGID_17_"/></clipPath><g enable-background="new    " clip-path="url(#SVGID_18_)"><path d="M224.63,102.38h-1.395c1.293-2.358,2.864-4.428,4.723-6.219,1.804-1.747,4.23-2.612,7.264-2.612h1.395c-3.033,0-5.46,0.865-7.264,2.612-1.87,1.795-3.44,3.869-4.73,6.219" fill="#85001B"/></g></g><g enable-background="new    "><defs><path id="SVGID_19_" enable-background="new    " d="M218.05,160.15h-1.395c2.325,0,4.471-0.081,6.456-0.243,1.984-0.171,3.896-0.567,5.728-1.206,1.823-0.63,3.619-1.566,5.369-2.79,1.751-1.224,3.582-2.871,5.495-4.941h1.395c-1.912,2.07-3.744,3.717-5.495,4.941-1.75,1.224-3.546,2.16-5.369,2.79-1.831,0.639-3.744,1.035-5.728,1.206-2,0.15-4.14,0.24-6.47,0.24z"/></defs><clipPath id="SVGID_20_"><use overflow="visible" xlink:href="#SVGID_19_"/></clipPath><g enable-background="new    " clip-path="url(#SVGID_20_)"><path d="M218.05,160.15h-1.395c2.325,0,4.471-0.081,6.456-0.243,1.984-0.171,3.896-0.567,5.728-1.206,1.823-0.63,3.619-1.566,5.369-2.79,1.751-1.224,3.582-2.871,5.495-4.941h1.395c-1.912,2.07-3.744,3.717-5.495,4.941-1.75,1.224-3.546,2.16-5.369,2.79-1.831,0.639-3.744,1.035-5.728,1.206-2,0.15-4.14,0.24-6.47,0.24" fill="#85001B"/></g></g><g enable-background="new    "><defs><path id="SVGID_21_" enable-background="new    " d="M225.78,148.28h-1.395c-2.164-1.503-4.777-2.754-7.847-3.744-3.062-0.99-5.989-1.503-8.771-1.557h1.395c2.783,0.054,5.709,0.567,8.771,1.557,3.08,0.99,5.69,2.24,7.85,3.74z"/></defs><clipPath id="SVGID_22_"><use overflow="visible" xlink:href="#SVGID_21_"/></clipPath><g enable-background="new    " clip-path="url(#SVGID_22_)"><path d="M225.78,148.28h-1.395c-2.164-1.503-4.777-2.754-7.847-3.744-3.062-0.99-5.989-1.503-8.771-1.557h1.395c2.783,0.054,5.709,0.567,8.771,1.557,3.08,0.99,5.69,2.24,7.85,3.74" fill="#85001B"/></g></g><g enable-background="new    "><defs><path id="SVGID_23_" enable-background="new    " d="M206.3,131.54h-1.395c1.858,0,3.412-0.369,4.678-1.125s2.28-1.719,3.052-2.898,1.32-2.493,1.625-3.951c0.314-1.458,0.467-2.925,0.467-4.383s-0.135-2.925-0.386-4.41c-0.261-1.485-0.746-2.817-1.473-3.996-0.718-1.17-1.724-2.124-3.017-2.853-1.284-0.729-2.936-1.098-4.947-1.098h1.395c2.011,0,3.663,0.369,4.947,1.098,1.293,0.729,2.298,1.683,3.017,2.853,0.728,1.179,1.212,2.511,1.473,3.996,0.251,1.485,0.386,2.952,0.386,4.41s-0.152,2.925-0.467,4.383c-0.305,1.458-0.853,2.772-1.625,3.951s-1.787,2.142-3.052,2.898c-1.28,0.76-2.83,1.12-4.69,1.12z"/></defs><clipPath id="SVGID_24_"><use overflow="visible" xlink:href="#SVGID_23_"/></clipPath><g enable-background="new    " clip-path="url(#SVGID_24_)"><path d="M206.3,131.54h-1.395c1.858,0,3.412-0.369,4.678-1.125s2.28-1.719,3.052-2.898,1.32-2.493,1.625-3.951c0.314-1.458,0.467-2.925,0.467-4.383s-0.135-2.925-0.386-4.41c-0.261-1.485-0.746-2.817-1.473-3.996-0.718-1.17-1.724-2.124-3.017-2.853-1.284-0.729-2.936-1.098-4.947-1.098h1.395c2.011,0,3.663,0.369,4.947,1.098,1.293,0.729,2.298,1.683,3.017,2.853,0.728,1.179,1.212,2.511,1.473,3.996,0.251,1.485,0.386,2.952,0.386,4.41s-0.152,2.925-0.467,4.383c-0.305,1.458-0.853,2.772-1.625,3.951s-1.787,2.142-3.052,2.898c-1.28,0.76-2.83,1.12-4.69,1.12" fill="#85001B"/></g></g><g enable-background="new    "><defs><path id="SVGID_25_" enable-background="new    " d="M202.43,128.37h-1.395c-0.566,0-1.042-0.045-1.428-0.135h1.396c0.38,0.08,0.86,0.13,1.42,0.13z"/></defs><clipPath id="SVGID_26_"><use overflow="visible" xlink:href="#SVGID_25_"/></clipPath><g enable-background="new    " clip-path="url(#SVGID_26_)"><path d="M202.43,128.37h-1.395c-0.566,0-1.042-0.045-1.428-0.135h1.396c0.38,0.08,0.86,0.13,1.42,0.13" fill="#85001B"/></g></g><g enable-background="new    "><defs><path id="SVGID_27_" enable-background="new    " d="M201,128.23h-1.396c-0.386-0.099-0.808-0.36-1.274-0.783h1.395c0.48,0.42,0.9,0.68,1.28,0.78z"/></defs><clipPath id="SVGID_28_"><use overflow="visible" xlink:href="#SVGID_27_"/></clipPath><g enable-background="new    " clip-path="url(#SVGID_28_)"><path d="M201,128.23h-1.396c-0.386-0.099-0.808-0.36-1.274-0.783h1.395c0.48,0.42,0.9,0.68,1.28,0.78" fill="#85001B"/></g></g><rect height="2.124" width="1.396" y="124.13" x="195.01" fill="#80001A"/><g enable-background="new    "><defs><path id="SVGID_29_" enable-background="new    " d="M196.41,124.13h-1.396c0-2.07,0.512-3.816,1.544-5.256s2.702-2.151,5.027-2.151h1.396c-2.326,0-3.995,0.711-5.028,2.151s-1.54,3.19-1.54,5.26z"/></defs><clipPath id="SVGID_30_"><use overflow="visible" xlink:href="#SVGID_29_"/></clipPath><g enable-background="new    " clip-path="url(#SVGID_30_)"><path d="M196.41,124.13h-1.396c0-2.07,0.512-3.816,1.544-5.256s2.702-2.151,5.027-2.151h1.396c-2.326,0-3.995,0.711-5.028,2.151s-1.54,3.19-1.54,5.26" fill="#85001B"/></g></g><g enable-background="new    "><defs><path id="SVGID_31_" enable-background="new    " d="M218.05,164.03h-1.395c-2.218,0-4.588-0.261-7.11-0.783-2.532-0.513-4.875-1.341-7.039-2.466-2.164-1.134-3.959-2.583-5.369-4.347-1.418-1.764-2.128-3.897-2.128-6.39,0-2.916,0.952-5.337,2.855-7.272,1.912-1.926,4.229-3.474,6.958-4.626,2.739-1.152,5.575-1.962,8.511-2.439,2.936-0.468,5.458-0.702,7.578-0.702h1.395c-2.119,0-4.642,0.234-7.578,0.702-2.936,0.477-5.772,1.287-8.511,2.439-2.73,1.152-5.046,2.7-6.958,4.626-1.903,1.935-2.854,4.356-2.854,7.272,0,2.493,0.709,4.626,2.127,6.39,1.41,1.764,3.205,3.213,5.369,4.347,2.164,1.125,4.507,1.953,7.039,2.466,2.53,0.52,4.9,0.78,7.11,0.78z"/></defs><clipPath id="SVGID_32_"><use overflow="visible" xlink:href="#SVGID_31_"/></clipPath><g enable-background="new    " clip-path="url(#SVGID_32_)"><path d="M218.05,164.03h-1.395c-2.218,0-4.588-0.261-7.11-0.783-2.532-0.513-4.875-1.341-7.039-2.466-2.164-1.134-3.959-2.583-5.369-4.347-1.418-1.764-2.128-3.897-2.128-6.39,0-2.916,0.952-5.337,2.855-7.272,1.912-1.926,4.229-3.474,6.958-4.626,2.739-1.152,5.575-1.962,8.511-2.439,2.936-0.468,5.458-0.702,7.578-0.702h1.395c-2.119,0-4.642,0.234-7.578,0.702-2.936,0.477-5.772,1.287-8.511,2.439-2.73,1.152-5.046,2.7-6.958,4.626-1.903,1.935-2.854,4.356-2.854,7.272,0,2.493,0.709,4.626,2.127,6.39,1.41,1.764,3.205,3.213,5.369,4.347,2.164,1.125,4.507,1.953,7.039,2.466,2.53,0.52,4.9,0.78,7.11,0.78" fill="#85001B"/></g></g><g enable-background="new    "><defs><path id="SVGID_33_" enable-background="new    " d="M207.23,133.32h-1.395c-2.522,0-4.713-0.675-6.572-2.016-1.85-1.341-3.268-3.024-4.247-5.049h1.396c0.979,2.025,2.397,3.708,4.246,5.049,1.84,1.34,4.03,2.02,6.56,2.02z"/></defs><clipPath id="SVGID_34_"><use overflow="visible" xlink:href="#SVGID_33_"/></clipPath><g enable-background="new    " clip-path="url(#SVGID_34_)"><path d="M207.23,133.32h-1.395c-2.522,0-4.713-0.675-6.572-2.016-1.85-1.341-3.268-3.024-4.247-5.049h1.396c0.979,2.025,2.397,3.708,4.246,5.049,1.84,1.34,4.03,2.02,6.56,2.02" fill="#85001B"/></g></g><g enable-background="new    "><defs><path id="SVGID_35_" enable-background="new    " d="M188.67,98.145h-1.395c1.553,0,3.062-0.27,4.525-0.81,1.473-0.54,2.873-1.026,4.22-1.449,1.904-0.612,3.645-1.062,5.216-1.341,1.571-0.288,3.367-0.423,5.378-0.423h1.396c-2.011,0-3.807,0.135-5.378,0.423-1.571,0.279-3.313,0.729-5.216,1.341-1.347,0.423-2.748,0.909-4.22,1.449-1.47,0.54-2.98,0.81-4.53,0.81z"/></defs><clipPath id="SVGID_36_"><use overflow="visible" xlink:href="#SVGID_35_"/></clipPath><g enable-background="new    " clip-path="url(#SVGID_36_)"><path d="M188.67,98.145h-1.395c1.553,0,3.062-0.27,4.525-0.81,1.473-0.54,2.873-1.026,4.22-1.449,1.904-0.612,3.645-1.062,5.216-1.341,1.571-0.288,3.367-0.423,5.378-0.423h1.396c-2.011,0-3.807,0.135-5.378,0.423-1.571,0.279-3.313,0.729-5.216,1.341-1.347,0.423-2.748,0.909-4.22,1.449-1.47,0.54-2.98,0.81-4.53,0.81" fill="#85001B"/></g></g><path d="M251.11,122.51c0.898,1.458,1.356,3.105,1.356,4.941,0,2.781-0.862,5.193-2.595,7.236-1.724,2.052-3.744,3.888-6.069,5.517-2.316,1.62-4.678,3.123-7.075,4.518-2.397,1.386-4.292,2.808-5.684,4.266-0.053,0-0.179,0.126-0.386,0.36s-0.44,0.504-0.691,0.81c-0.26,0.306-0.503,0.576-0.736,0.81s-0.404,0.351-0.503,0.351c-0.565-0.045-1.069-0.468-1.509-1.269-0.439-0.801-0.916-1.386-1.436-1.764-2.164-1.503-4.777-2.754-7.847-3.744-3.062-0.99-5.989-1.503-8.771-1.557-1.239,0-2.532,0.144-3.87,0.432-1.337,0.279-2.567,0.711-3.671,1.305-1.114,0.585-2.021,1.35-2.748,2.295-0.718,0.936-1.077,2.07-1.077,3.384,0,2.214,0.745,3.969,2.235,5.265,1.5,1.296,3.304,2.268,5.414,2.934,2.119,0.657,4.336,1.08,6.653,1.269,2.316,0.189,4.301,0.279,5.952,0.279,2.326,0,4.471-0.081,6.456-0.243,1.984-0.171,3.896-0.567,5.728-1.206,1.823-0.63,3.619-1.566,5.369-2.79,1.751-1.224,3.583-2.871,5.495-4.941h0.386c0,0.711-0.287,1.386-0.853,2.052-0.566,0.657-1.059,1.197-1.472,1.62-2.936,2.781-6.114,5.04-9.544,6.777-3.429,1.746-7.281,2.619-11.564,2.619-2.217,0-4.588-0.261-7.11-0.783-2.532-0.513-4.875-1.341-7.039-2.466-2.164-1.134-3.959-2.583-5.369-4.347-1.418-1.764-2.127-3.897-2.127-6.39,0-2.916,0.951-5.337,2.854-7.272,1.913-1.926,4.229-3.474,6.958-4.626,2.738-1.152,5.575-1.962,8.511-2.439,2.936-0.468,5.459-0.702,7.578-0.702,0.826,0,1.787,0.207,2.9,0.63,1.104,0.432,2.406,0.639,3.905,0.639h0.386c0.099,0,0.215-0.036,0.35-0.108,0.126-0.072,0.188-0.153,0.188-0.243v-28.953c0-1.089-0.089-2.178-0.269-3.285s-0.53-1.665-1.042-1.665c-1.086,0-1.912,0.333-2.478,0.99-0.566,0.666-0.853,1.395-0.853,2.196,0,1.359,0.134,2.691,0.386,3.987,0.26,1.296,0.395,2.628,0.395,3.987,0,2.502-0.44,4.959-1.32,7.38-0.88,2.43-2.128,4.581-3.753,6.462-1.616,1.881-3.609,3.402-5.952,4.554s-4.983,1.737-7.928,1.737c-2.522,0-4.713-0.675-6.572-2.016-1.849-1.341-3.268-3.024-4.246-5.049v-2.124c0-2.07,0.511-3.816,1.544-5.256s2.702-2.151,5.028-2.151c2.056,0,3.645,0.549,4.749,1.656,1.113,1.107,1.67,2.556,1.67,4.347,0,1.647-0.575,2.997-1.706,4.059-1.131,1.053-2.577,1.584-4.328,1.584h-0.934c-0.566,0-1.042-0.045-1.427-0.135-0.386-0.099-0.808-0.36-1.275-0.783l-0.386,0.216c0,0.657,0.26,1.224,0.772,1.692s1.131,0.873,1.859,1.206c0.718,0.324,1.481,0.576,2.28,0.738s1.481,0.243,2.047,0.243c1.858,0,3.412-0.369,4.678-1.125s2.28-1.719,3.052-2.898,1.32-2.493,1.625-3.951c0.314-1.458,0.467-2.925,0.467-4.383s-0.134-2.925-0.386-4.41c-0.261-1.485-0.745-2.817-1.473-3.996-0.718-1.17-1.724-2.124-3.017-2.853-1.284-0.729-2.936-1.098-4.947-1.098-1.499,0-2.927,0.063-4.292,0.18s-2.774,0.171-4.21,0.171c-2.011,0-3.959-0.216-5.845-0.666-1.876-0.45-3.564-1.143-5.063-2.088-1.49-0.936-2.693-2.142-3.591-3.6-0.907-1.458-1.355-3.177-1.355-5.157,0-0.279,0.054-0.819,0.152-1.62,0.108-0.801,0.359-1.206,0.772-1.206h0.233c0.207,0,0.359,0.279,0.467,0.819,0.099,0.54,0.323,1.152,0.655,1.836,0.333,0.684,0.835,1.296,1.509,1.836s1.652,0.81,2.936,0.81c1.554,0,3.062-0.27,4.525-0.81,1.472-0.54,2.873-1.026,4.22-1.449,1.903-0.612,3.645-1.062,5.216-1.341,1.572-0.288,3.367-0.423,5.378-0.423h3.322c2.424,0.612,4.417,1.431,5.988,2.466s3.241,2.385,4.992,4.032c0.207,0.189,0.476,0.522,0.808,1.017,0.341,0.495,0.709,0.747,1.122,0.747h0.386c1.293-2.358,2.864-4.428,4.723-6.219,1.804-1.747,4.231-2.612,7.264-2.612,0.077,0,0.155,0,0.232,0.002,1.132,0,2.165,0.198,3.098,0.603,0.925,0.396,1.796,0.819,2.622,1.269s1.616,0.873,2.361,1.269c0.745,0.405,1.535,0.603,2.361,0.603,0.979,0,1.688-0.216,2.128-0.639,0.431-0.423,1.014-0.99,1.732-1.692,0.368,0,0.548,0.189,0.548,0.567,0,0.468-0.206,0.972-0.619,1.512-0.414,0.549-0.854,1.071-1.32,1.593-0.458,0.513-0.898,0.999-1.311,1.449s-0.619,0.81-0.619,1.089v0.36c0.045,0.321,0.221,0.473,0.525,0.473,0.638-0.029,0.819,0.174,0.866,0.58,0,0.144-0.27,0.378-0.809,0.711-0.548,0.324-1.149,0.774-1.822,1.341-0.665,0.567-1.275,1.26-1.813,2.079-0.539,0.828-0.817,1.8-0.817,2.934,0,1.692,0.44,3.24,1.319,4.626,0.871,1.386,1.841,2.745,2.9,4.059,1.02,1.29,2,2.68,2.9,4.14zm-8.08-17.79v-0.36c-0.718,0-1.418,0.063-2.083,0.18-0.674,0.117-1.392,0.18-2.173,0.18-1.23,0-2.424-0.297-3.555-0.882-1.131-0.594-2.218-0.882-3.25-0.882-0.359,0-0.539,0.117-0.539,0.351v12.357c0,1.98-0.009,3.906-0.036,5.787-0.027,1.89-0.036,3.816-0.036,5.796,0,3.195,0.072,6.399,0.225,9.603,0.26,0.279,0.754,0.666,1.472,1.161,0.719,0.495,1.5,0.972,2.317,1.413,0.826,0.45,1.616,0.837,2.361,1.17,0.745,0.324,1.275,0.495,1.589,0.495h0.386c0.979-0.801,1.715-1.602,2.2-2.403,0.494-0.801,0.736-1.764,0.736-2.898,0-1.458-0.404-2.799-1.194-4.023-0.808-1.224-1.697-2.475-2.675-3.744s-1.868-2.637-2.667-4.095-1.194-3.15-1.194-5.085c0-2.826,0.781-5.427,2.353-7.803,1.58-2.4,3.49-4.51,5.76-6.34" fill="#F03"/><g enable-background="new    "><defs><path id="SVGID_37_" enable-background="new    " d="M197.8,107.18h-1.396c-2.011,0-3.959-0.216-5.845-0.666-1.876-0.45-3.564-1.143-5.063-2.088-1.491-0.936-2.694-2.142-3.591-3.6-0.907-1.458-1.355-3.177-1.355-5.157,0-0.279,0.054-0.819,0.152-1.62,0.107-0.801,0.359-1.206,0.772-1.206h1.395c-0.413,0-0.664,0.405-0.772,1.206-0.099,0.801-0.152,1.341-0.152,1.62,0,1.98,0.449,3.699,1.355,5.157,0.898,1.458,2.101,2.664,3.591,3.6,1.5,0.945,3.187,1.638,5.063,2.088,1.87,0.45,3.82,0.67,5.83,0.67z"/></defs><clipPath id="SVGID_38_"><use overflow="visible" xlink:href="#SVGID_37_"/></clipPath><g enable-background="new    " clip-path="url(#SVGID_38_)"><path d="M197.8,107.18h-1.396c-2.011,0-3.959-0.216-5.845-0.666-1.876-0.45-3.564-1.143-5.063-2.088-1.491-0.936-2.694-2.142-3.591-3.6-0.907-1.458-1.355-3.177-1.355-5.157,0-0.279,0.054-0.819,0.152-1.62,0.107-0.801,0.359-1.206,0.772-1.206h1.395c-0.413,0-0.664,0.405-0.772,1.206-0.099,0.801-0.152,1.341-0.152,1.62,0,1.98,0.449,3.699,1.355,5.157,0.898,1.458,2.101,2.664,3.591,3.6,1.5,0.945,3.187,1.638,5.063,2.088,1.87,0.45,3.82,0.67,5.83,0.67" fill="#85001B"/></g></g></g><g enable-background="new    "><g enable-background="new    "><defs><path id="SVGID_39_" enable-background="new    " d="M265.09,142.52h-0.871c1.712,0,3.218-0.315,4.519-0.945h0.871c-1.3,0.62-2.81,0.94-4.52,0.94z"/></defs><clipPath id="SVGID_40_"><use overflow="visible" xlink:href="#SVGID_39_"/></clipPath><g enable-background="new    " clip-path="url(#SVGID_40_)"><path d="M265.09,142.52h-0.871c1.712,0,3.218-0.315,4.519-0.945h0.871c-1.3,0.62-2.81,0.94-4.52,0.94" fill="#85001B"/></g></g><g enable-background="new    "><defs><path id="SVGID_41_" enable-background="new    " d="M266.52,137.61h-0.872c0-1.728-0.896-2.592-2.707-2.592h0.871c1.81,0,2.71,0.86,2.71,2.59z"/></defs><clipPath id="SVGID_42_"><use overflow="visible" xlink:href="#SVGID_41_"/></clipPath><g enable-background="new    " clip-path="url(#SVGID_42_)"><path d="M266.52,137.61h-0.872c0-1.728-0.896-2.592-2.707-2.592h0.871c1.81,0,2.71,0.86,2.71,2.59" fill="#85001B"/></g></g><polygon points="260.78,137.61,259.91,137.61,265.64,137.61,266.52,137.61" fill="#80001A"/><g enable-background="new    "><defs><path id="SVGID_43_" enable-background="new    " d="M264,145.15h-0.871c-2.52,0-4.475-0.54-5.864-1.62-1.39-1.08-2.08-2.583-2.08-4.509,0-2.007,0.744-3.591,2.25-4.752,1.497-1.17,3.345-1.755,5.542-1.755h0.871c-2.196,0-4.044,0.585-5.541,1.755-1.506,1.161-2.251,2.745-2.251,4.752,0,1.926,0.691,3.429,2.08,4.509,1.38,1.07,3.34,1.61,5.86,1.61z"/></defs><clipPath id="SVGID_44_"><use overflow="visible" xlink:href="#SVGID_43_"/></clipPath><g enable-background="new    " clip-path="url(#SVGID_44_)"><path d="M264,145.15h-0.871c-2.52,0-4.475-0.54-5.864-1.62-1.39-1.08-2.08-2.583-2.08-4.509,0-2.007,0.744-3.591,2.25-4.752,1.497-1.17,3.345-1.755,5.542-1.755h0.871c-2.196,0-4.044,0.585-5.541,1.755-1.506,1.161-2.251,2.745-2.251,4.752,0,1.926,0.691,3.429,2.08,4.509,1.38,1.07,3.34,1.61,5.86,1.61" fill="#85001B"/></g></g><path d="M270.98,138.33v1.557h-10.167c0.161,1.755,1.587,2.628,4.276,2.628,1.712,0,3.219-0.315,4.519-0.945v2.682c-1.443,0.603-3.317,0.9-5.612,0.9-2.52,0-4.474-0.54-5.864-1.62-1.389-1.08-2.08-2.583-2.08-4.509,0-2.007,0.745-3.591,2.251-4.752,1.497-1.17,3.345-1.755,5.541-1.755,2.268,0,4.025,0.522,5.271,1.566,1.23,1.04,1.86,2.45,1.86,4.24zm-10.2-0.72h5.729c0-1.728-0.896-2.592-2.708-2.592-0.771,0-1.435,0.252-1.999,0.747-0.56,0.48-0.9,1.1-1.02,1.84" fill="#F03"/></g><g enable-background="new    "><g enable-background="new    "><defs><path id="SVGID_45_" enable-background="new    " d="M284,136.16h-0.871c-0.573-0.243-1.246-0.369-2.017-0.369h0.871c0.77,0,1.44,0.13,2.02,0.37z"/></defs><clipPath id="SVGID_46_"><use overflow="visible" xlink:href="#SVGID_45_"/></clipPath><g enable-background="new    " clip-path="url(#SVGID_46_)"><path d="M284,136.16h-0.871c-0.573-0.243-1.246-0.369-2.017-0.369h0.871c0.77,0,1.44,0.13,2.02,0.37" fill="#85001B"/></g></g><g enable-background="new    "><defs><path id="SVGID_47_" enable-background="new    " d="M278.71,135.04h-0.872c0.762-1.629,2.125-2.448,4.106-2.448h0.872c-1.99,0.01-3.35,0.83-4.11,2.45z"/></defs><clipPath id="SVGID_48_"><use overflow="visible" xlink:href="#SVGID_47_"/></clipPath><g enable-background="new    " clip-path="url(#SVGID_48_)"><path d="M278.71,135.04h-0.872c0.762-1.629,2.125-2.448,4.106-2.448h0.872c-1.99,0.01-3.35,0.83-4.11,2.45" fill="#85001B"/></g></g><polygon points="273.84,132.8,278.64,132.8,277.77,132.8,272.97,132.8" fill="#80001A"/><rect height="12.051" width="0.871" y="132.8" x="272.97" fill="#80001A"/><path d="M282.81,132.6c0.511,0,0.905,0.045,1.183,0.144v3.42c-0.573-0.243-1.246-0.369-2.017-0.369-1.049,0-1.865,0.297-2.456,0.891-0.583,0.594-0.88,1.404-0.88,2.421v5.751h-4.805v-12.051h4.805v2.241h0.063c0.79-1.62,2.15-2.44,4.13-2.44z" fill="#F03"/></g><g enable-background="new    "><rect height="12.051" width="0.871" y="132.8" x="285.37" fill="#80001A"/><polygon points="286.24,132.8,291.04,132.8,290.17,132.8,285.37,132.8" fill="#80001A"/><rect height="12.051" width="4.807" y="132.8" x="286.24" fill="#F03"/></g><g enable-background="new    "><g enable-background="new    "><defs><path id="SVGID_49_" enable-background="new    " d="M288.68,130.9h-0.872c-0.814,0-1.479-0.189-1.999-0.558h0.872c0.52,0.38,1.18,0.56,2,0.56z"/></defs><clipPath id="SVGID_50_"><use overflow="visible" xlink:href="#SVGID_49_"/></clipPath><g enable-background="new    " clip-path="url(#SVGID_50_)"><path d="M288.68,130.9h-0.872c-0.814,0-1.479-0.189-1.999-0.558h0.872c0.52,0.38,1.18,0.56,2,0.56" fill="#85001B"/></g></g><g enable-background="new    "><defs><path id="SVGID_51_" enable-background="new    " d="M286.68,130.35h-0.872c-0.521-0.378-0.771-0.837-0.771-1.377,0-0.558,0.251-1.008,0.771-1.359,0.521-0.36,1.185-0.531,1.999-0.531h0.872c-0.815,0-1.479,0.171-1.999,0.531-0.521,0.351-0.771,0.801-0.771,1.359,0,0.54,0.25,1,0.77,1.38z"/></defs><clipPath id="SVGID_52_"><use overflow="visible" xlink:href="#SVGID_51_"/></clipPath><g enable-background="new    " clip-path="url(#SVGID_52_)"><path d="M286.68,130.35h-0.872c-0.521-0.378-0.771-0.837-0.771-1.377,0-0.558,0.251-1.008,0.771-1.359,0.521-0.36,1.185-0.531,1.999-0.531h0.872c-0.815,0-1.479,0.171-1.999,0.531-0.521,0.351-0.771,0.801-0.771,1.359,0,0.54,0.25,1,0.77,1.38" fill="#85001B"/></g></g><path d="M286.68,130.35c-0.521-0.378-0.771-0.837-0.771-1.377,0-0.558,0.251-1.008,0.771-1.359,0.521-0.36,1.184-0.531,1.999-0.531,0.816,0,1.488,0.171,1.999,0.531,0.512,0.351,0.763,0.801,0.763,1.359,0,0.567-0.251,1.026-0.763,1.395-0.511,0.36-1.183,0.54-1.999,0.54-0.82,0-1.48-0.18-2-0.55z" fill="#F03"/></g><g enable-background="new    "><g enable-background="new    "><defs><path id="SVGID_53_" enable-background="new    " d="M302.94,142.3h-0.871c0.511,0,1.031-0.108,1.569-0.342h0.871c-0.54,0.23-1.06,0.34-1.57,0.34z"/></defs><clipPath id="SVGID_54_"><use overflow="visible" xlink:href="#SVGID_53_"/></clipPath><g enable-background="new    " clip-path="url(#SVGID_54_)"><path d="M302.94,142.3h-0.871c0.511,0,1.031-0.108,1.569-0.342h0.871c-0.54,0.23-1.06,0.34-1.57,0.34" fill="#85001B"/></g></g><polygon points="301.02,132.8,300.14,132.8,303.64,132.8,304.51,132.8" fill="#80001A"/><rect height="5.517" width="0.871" y="135.55" x="295.35" fill="#80001A"/><g enable-background="new    "><defs><path id="SVGID_55_" enable-background="new    " d="M301.3,145.15h-0.871c-3.389,0-5.083-1.359-5.083-4.086h0.871c0,2.73,1.69,4.09,5.08,4.09z"/></defs><clipPath id="SVGID_56_"><use overflow="visible" xlink:href="#SVGID_55_"/></clipPath><g enable-background="new    " clip-path="url(#SVGID_56_)"><path d="M301.3,145.15h-0.871c-3.389,0-5.083-1.359-5.083-4.086h0.871c0,2.73,1.69,4.09,5.08,4.09" fill="#85001B"/></g></g><polygon points="296.22,130.21,295.35,130.21,300.14,129.15,301.02,129.15" fill="#80001A"/><rect height="2.592" width="0.871" y="130.21" x="295.35" fill="#80001A"/><rect height="2.745" width="0.871" y="132.8" x="292.83" fill="#80001A"/><path d="M301.02,129.15v3.654h3.497v2.745h-3.497v4.869c0,1.26,0.646,1.881,1.928,1.881,0.511,0,1.031-0.108,1.569-0.342v2.754c-0.708,0.297-1.775,0.441-3.211,0.441-3.388,0-5.083-1.359-5.083-4.086v-5.517h-2.52v-2.745h2.52v-2.592l4.79-1.04z" fill="#F03"/><polygon points="293.7,132.8,292.83,132.8,295.35,132.8,296.22,132.8" fill="#80001A"/></g><g enable-background="new    "><rect height="0.81" width="0.871" y="139.15" x="314.79" fill="#80001A"/><rect height="1.728" width="0.871" y="143.13" x="314.77" fill="#80001A"/><g enable-background="new    "><defs><path id="SVGID_57_" enable-background="new    " d="M315.66,137.02h-0.871c0-1.314-0.924-1.971-2.77-1.971h0.871c1.85-0.01,2.77,0.65,2.77,1.97z"/></defs><clipPath id="SVGID_58_"><use overflow="visible" xlink:href="#SVGID_57_"/></clipPath><g enable-background="new    " clip-path="url(#SVGID_58_)"><path d="M315.66,137.02h-0.871c0-1.314-0.924-1.971-2.77-1.971h0.871c1.85-0.01,2.77,0.65,2.77,1.97" fill="#85001B"/></g></g><g enable-background="new    "><defs><path id="SVGID_59_" enable-background="new    " d="M312.61,142.52h-0.871c0.905,0,1.64-0.243,2.205-0.72,0.574-0.486,0.852-1.098,0.852-1.836h0.871c0,0.738-0.277,1.35-0.851,1.836-0.56,0.47-1.3,0.72-2.2,0.72z"/></defs><clipPath id="SVGID_60_"><use overflow="visible" xlink:href="#SVGID_59_"/></clipPath><g enable-background="new    " clip-path="url(#SVGID_60_)"><path d="M312.61,142.52h-0.871c0.905,0,1.64-0.243,2.205-0.72,0.574-0.486,0.852-1.098,0.852-1.836h0.871c0,0.738-0.277,1.35-0.851,1.836-0.56,0.47-1.3,0.72-2.2,0.72" fill="#85001B"/></g></g><polygon points="311.44,137.46,310.57,137.46,314.79,137.02,315.66,137.02" fill="#80001A"/><g enable-background="new    "><defs><path id="SVGID_61_" enable-background="new    " d="M307.6,133.52h-0.872c0.673-0.261,1.587-0.504,2.744-0.702,1.165-0.207,2.224-0.306,3.174-0.306h0.872c-0.951,0-2.009,0.099-3.175,0.306-1.15,0.2-2.06,0.44-2.74,0.7z"/></defs><clipPath id="SVGID_62_"><use overflow="visible" xlink:href="#SVGID_61_"/></clipPath><g enable-background="new    " clip-path="url(#SVGID_62_)"><path d="M307.6,133.52h-0.872c0.673-0.261,1.587-0.504,2.744-0.702,1.165-0.207,2.224-0.306,3.174-0.306h0.872c-0.951,0-2.009,0.099-3.175,0.306-1.15,0.2-2.06,0.44-2.74,0.7" fill="#85001B"/></g></g><rect height="2.799" width="0.872" y="133.52" x="306.73" fill="#80001A"/><path d="M313.52,132.52c4.446,0,6.661,1.71,6.661,5.139v7.2h-4.546v-1.728h-0.063c-1.04,1.35-2.591,2.025-4.636,2.025-1.515,0-2.708-0.333-3.567-0.999-0.87-0.657-1.31-1.548-1.31-2.655,0-2.331,1.793-3.681,5.38-4.041l4.222-0.441c0-1.314-0.923-1.971-2.77-1.971-1.856,0-3.613,0.423-5.29,1.278v-2.799c0.672-0.261,1.587-0.504,2.743-0.702,1.18-0.21,2.24-0.31,3.19-0.31zm2.14,7.44v-0.81l-2.824,0.279c-1.568,0.162-2.348,0.702-2.348,1.638,0,0.423,0.196,0.774,0.573,1.044s0.896,0.405,1.542,0.405c0.906,0,1.641-0.243,2.206-0.72,0.58-0.49,0.85-1.1,0.85-1.84" fill="#F03"/><g enable-background="new    "><defs><path id="SVGID_63_" enable-background="new    " d="M310.94,145.15h-0.872c-1.515,0-2.707-0.333-3.567-0.999-0.869-0.657-1.31-1.548-1.31-2.655,0-2.331,1.793-3.681,5.38-4.041h0.872c-3.587,0.36-5.38,1.71-5.38,4.041,0,1.107,0.439,1.998,1.31,2.655,0.86,0.66,2.05,0.99,3.57,0.99z"/></defs><clipPath id="SVGID_64_"><use overflow="visible" xlink:href="#SVGID_63_"/></clipPath><g enable-background="new    " clip-path="url(#SVGID_64_)"><path d="M310.94,145.15h-0.872c-1.515,0-2.707-0.333-3.567-0.999-0.869-0.657-1.31-1.548-1.31-2.655,0-2.331,1.793-3.681,5.38-4.041h0.872c-3.587,0.36-5.38,1.71-5.38,4.041,0,1.107,0.439,1.998,1.31,2.655,0.86,0.66,2.05,0.99,3.57,0.99" fill="#85001B"/></g></g></g><g enable-background="new    "><g enable-background="new    "><defs><path id="SVGID_65_" enable-background="new    " d="M333.99,135.86h-0.872c-0.609-0.27-1.265-0.477-1.954-0.612-0.699-0.144-1.382-0.207-2.054-0.207h0.871c0.673,0,1.354,0.063,2.054,0.207,0.69,0.14,1.34,0.34,1.95,0.61z"/></defs><clipPath id="SVGID_66_"><use overflow="visible" xlink:href="#SVGID_65_"/></clipPath><g enable-background="new    " clip-path="url(#SVGID_66_)"><path d="M333.99,135.86h-0.872c-0.609-0.27-1.265-0.477-1.954-0.612-0.699-0.144-1.382-0.207-2.054-0.207h0.871c0.673,0,1.354,0.063,2.054,0.207,0.69,0.14,1.34,0.34,1.95,0.61" fill="#85001B"/></g></g><g enable-background="new    "><defs><path id="SVGID_67_" enable-background="new    " d="M329.98,140.94h-0.871c-0.215-0.162-0.502-0.297-0.86-0.414-0.341-0.117-0.727-0.225-1.147-0.315h0.871c0.422,0.09,0.807,0.198,1.148,0.315,0.36,0.1,0.65,0.24,0.86,0.4z"/></defs><clipPath id="SVGID_68_"><use overflow="visible" xlink:href="#SVGID_67_"/></clipPath><g enable-background="new    " clip-path="url(#SVGID_68_)"><path d="M329.98,140.94h-0.871c-0.215-0.162-0.502-0.297-0.86-0.414-0.341-0.117-0.727-0.225-1.147-0.315h0.871c0.422,0.09,0.807,0.198,1.148,0.315,0.36,0.1,0.65,0.24,0.86,0.4" fill="#85001B"/></g></g><g enable-background="new    "><defs><path id="SVGID_69_" enable-background="new    " d="M327.57,142.62h-0.872c0.853,0,1.524-0.09,2.009-0.27,0.493-0.18,0.745-0.459,0.745-0.828,0-0.234-0.117-0.432-0.342-0.585h0.871c0.225,0.153,0.342,0.351,0.342,0.585,0,0.369-0.252,0.648-0.744,0.828-0.49,0.18-1.17,0.27-2.02,0.27z"/></defs><clipPath id="SVGID_70_"><use overflow="visible" xlink:href="#SVGID_69_"/></clipPath><g enable-background="new    " clip-path="url(#SVGID_70_)"><path d="M327.57,142.62h-0.872c0.853,0,1.524-0.09,2.009-0.27,0.493-0.18,0.745-0.459,0.745-0.828,0-0.234-0.117-0.432-0.342-0.585h0.871c0.225,0.153,0.342,0.351,0.342,0.585,0,0.369-0.252,0.648-0.744,0.828-0.49,0.18-1.17,0.27-2.02,0.27" fill="#85001B"/></g></g><rect height="3.015" width="0.872" y="141.52" x="322.1" fill="#80001A"/><g enable-background="new    "><defs><path id="SVGID_71_" enable-background="new    " d="M327.73,145.15h-0.871c-1.713,0-3.299-0.207-4.762-0.612h0.872c1.46,0.4,3.05,0.61,4.76,0.61z"/></defs><clipPath id="SVGID_72_"><use overflow="visible" xlink:href="#SVGID_71_"/></clipPath><g enable-background="new    " clip-path="url(#SVGID_72_)"><path d="M327.73,145.15h-0.871c-1.713,0-3.299-0.207-4.762-0.612h0.872c1.46,0.4,3.05,0.61,4.76,0.61" fill="#85001B"/></g></g><g enable-background="new    "><defs><path id="SVGID_73_" enable-background="new    " d="M327.98,140.21h-0.871c-0.413-0.099-0.816-0.207-1.202-0.324-0.618-0.18-1.165-0.369-1.631-0.576-0.476-0.207-0.87-0.45-1.193-0.729-0.313-0.27-0.555-0.585-0.727-0.954-0.17-0.36-0.251-0.783-0.251-1.278,0-0.675,0.189-1.251,0.574-1.746,0.377-0.486,0.889-0.882,1.516-1.188,0.637-0.315,1.363-0.54,2.179-0.684s1.667-0.216,2.547-0.216h0.871c-0.879,0-1.73,0.072-2.547,0.216-0.815,0.144-1.542,0.369-2.178,0.684-0.628,0.306-1.14,0.702-1.517,1.188-0.385,0.495-0.573,1.071-0.573,1.746,0,0.495,0.08,0.918,0.251,1.278,0.171,0.369,0.412,0.684,0.727,0.954,0.323,0.279,0.717,0.522,1.192,0.729,0.466,0.207,1.013,0.396,1.632,0.576,0.38,0.11,0.78,0.22,1.2,0.32z"/></defs><clipPath id="SVGID_74_"><use overflow="visible" xlink:href="#SVGID_73_"/></clipPath><g enable-background="new    " clip-path="url(#SVGID_74_)"><path d="M327.98,140.21h-0.871c-0.413-0.099-0.816-0.207-1.202-0.324-0.618-0.18-1.165-0.369-1.631-0.576-0.476-0.207-0.87-0.45-1.193-0.729-0.313-0.27-0.555-0.585-0.727-0.954-0.17-0.36-0.251-0.783-0.251-1.278,0-0.675,0.189-1.251,0.574-1.746,0.377-0.486,0.889-0.882,1.516-1.188,0.637-0.315,1.363-0.54,2.179-0.684s1.667-0.216,2.547-0.216h0.871c-0.879,0-1.73,0.072-2.547,0.216-0.815,0.144-1.542,0.369-2.178,0.684-0.628,0.306-1.14,0.702-1.517,1.188-0.385,0.495-0.573,1.071-0.573,1.746,0,0.495,0.08,0.918,0.251,1.278,0.171,0.369,0.412,0.684,0.727,0.954,0.323,0.279,0.717,0.522,1.192,0.729,0.466,0.207,1.013,0.396,1.632,0.576,0.38,0.11,0.78,0.22,1.2,0.32" fill="#85001B"/></g></g><path d="M329.79,132.52c0.689,0,1.39,0.036,2.106,0.126,0.708,0.081,1.407,0.198,2.099,0.351v2.871c-0.61-0.27-1.265-0.477-1.955-0.612-0.699-0.144-1.381-0.207-2.054-0.207-0.313,0-0.608,0.018-0.887,0.063s-0.521,0.108-0.735,0.189c-0.216,0.081-0.386,0.189-0.502,0.315-0.126,0.135-0.188,0.279-0.188,0.441,0,0.225,0.099,0.414,0.277,0.567,0.181,0.153,0.422,0.297,0.719,0.405,0.295,0.117,0.617,0.216,0.977,0.306,0.358,0.09,0.717,0.18,1.075,0.279,0.637,0.171,1.22,0.36,1.731,0.567,0.52,0.198,0.968,0.441,1.336,0.711,0.367,0.279,0.654,0.603,0.851,0.963,0.197,0.369,0.297,0.81,0.297,1.323,0,0.711-0.197,1.323-0.602,1.827-0.403,0.504-0.932,0.918-1.595,1.233-0.664,0.324-1.436,0.549-2.305,0.702-0.861,0.144-1.766,0.216-2.699,0.216-1.712,0-3.299-0.207-4.761-0.612v-3.015c0.789,0.369,1.578,0.648,2.366,0.828,0.789,0.18,1.533,0.27,2.233,0.27,0.852,0,1.524-0.09,2.009-0.27,0.492-0.18,0.744-0.459,0.744-0.828,0-0.234-0.117-0.432-0.342-0.585-0.215-0.162-0.502-0.297-0.859-0.414-0.342-0.117-0.727-0.225-1.148-0.315-0.412-0.099-0.816-0.207-1.201-0.324-0.619-0.18-1.166-0.369-1.632-0.576-0.476-0.207-0.869-0.45-1.192-0.729-0.314-0.27-0.556-0.585-0.727-0.954-0.171-0.36-0.251-0.783-0.251-1.278,0-0.675,0.188-1.251,0.573-1.746,0.377-0.486,0.889-0.882,1.517-1.188,0.636-0.315,1.362-0.54,2.178-0.684,0.81-0.17,1.66-0.24,2.54-0.24z" fill="#F03"/></g></svg>
